PathFileType	4	(X/Y/Z)	 s08c0001.trc
DataRate	CameraRate	NumFrames	NumMarkers	Units	OrigDataRate	OrigDataStartFrame	OrigNumFrames
200	200	4	49	mm	200	1251	2000
Frame#	Time	racr			lacr			c7			jug			rlel			rdr			llel			ldr			s2			lic			ric			lasi			rasi			rpsi			lpsi			rgt			lgt			rth1			rth2			rth3			rth4			rlfc			rmfc			rsh1			rsh2			rsh3			rsh4			rlmal			rmmal			rcal			rtoe			rmt5			rmt1			lth1			lth2			lth4			lth3			llfc			lmfc			llmal			lmmal			lcal			lmt1			lmt5			lsh1			lsh2			lsh3			lsh4			ltoe			
		X1	Y1	Z1	X2	Y2	Z2	X3	Y3	Z3	X4	Y4	Z4	X5	Y5	Z5	X6	Y6	Z6	X7	Y7	Z7	X8	Y8	Z8	X9	Y9	Z9	X10	Y10	Z10	X11	Y11	Z11	X12	Y12	Z12	X13	Y13	Z13	X14	Y14	Z14	X15	Y15	Z15	X16	Y16	Z16	X17	Y17	Z17	X18	Y18	Z18	X19	Y19	Z19	X20	Y20	Z20	X21	Y21	Z21	X22	Y22	Z22	X23	Y23	Z23	X24	Y24	Z24	X25	Y25	Z25	X26	Y26	Z26	X27	Y27	Z27	X28	Y28	Z28	X29	Y29	Z29	X30	Y30	Z30	X31	Y31	Z31	X32	Y32	Z32	X33	Y33	Z33	X34	Y34	Z34	X35	Y35	Z35	X36	Y36	Z36	X37	Y37	Z37	X38	Y38	Z38	X39	Y39	Z39	X40	Y40	Z40	X41	Y41	Z41	X42	Y42	Z42	X43	Y43	Z43	X44	Y44	Z44	X45	Y45	Z45	X46	Y46	Z46	X47	Y47	Z47	X48	Y48	Z48	X49	Y49	Z49	
1251	6.2550	420.340241	1530.107786	594.194610	408.462809	1544.713729	197.277818	361.328799	1583.827227	394.416825	492.390778	1487.929916	392.997404	379.983374	1237.058880	681.014299	455.091657	960.719769	793.305373	387.572961	1244.484282	96.397514	445.848028	973.763434	-8.310409	327.790177	1028.556904	403.729948	474.986914	1094.036158	238.023403	480.902385	1100.355161	554.827617	524.087512	1036.457036	268.731217	536.888619	1033.964347	520.284350	349.788374	1068.181590	451.464349	348.357525	1075.852758	352.128524	423.882692	955.722278	576.625543	428.266190	943.755136	211.402101	436.791972	804.250857	592.541434	458.459115	718.480867	588.218838	495.388992	719.117487	579.901612	435.449974	635.205756	578.256790	438.963704	511.958215	559.081788	423.253939	499.957418	455.583635	399.085368	387.348606	593.586665	421.975941	301.231129	575.947042	398.503894	218.353130	569.309784	448.576671	305.920452	545.838351	392.502841	97.774310	555.668002	407.446154	122.389814	469.970201	321.424320	65.427296	507.931715	612.050946	78.974164	510.615356	535.407512	47.898752	577.115540	538.681278	47.754840	464.034119	445.018241	815.110823	189.160399	464.430987	729.837556	192.919619	500.492051	730.581416	201.503960	437.511733	645.450913	196.140253	431.541422	518.845337	216.692847	436.826774	496.326582	315.243830	381.882914	107.050428	221.694255	412.024384	126.414680	301.922409	325.144091	74.282484	264.463008	541.947838	47.192708	295.874418	528.709381	43.048801	181.181072	409.601537	394.164390	190.464234	423.074121	310.650150	207.702790	394.234535	227.136904	207.527989	444.398433	313.061902	240.046742	610.515747	81.617581	243.131440	
1252	6.2600	420.336518	1530.098100	594.186519	408.458718	1544.714442	197.274538	361.328125	1583.828319	394.417789	492.366918	1487.929225	392.978534	379.982533	1237.059845	681.023679	455.025256	960.703278	793.266557	387.566732	1244.486124	96.383322	445.815106	973.759850	-8.312199	327.757954	1028.558905	403.732281	474.959939	1094.035077	238.015509	480.876905	1100.352752	554.820514	524.042668	1036.459192	268.723627	536.857824	1033.959747	520.272519	349.777798	1068.184719	451.471910	348.333029	1075.823394	352.134377	423.867332	955.725473	576.635187	428.262966	943.749958	211.396674	436.784627	804.242431	592.541112	458.433615	718.499229	588.231344	495.368854	719.133776	579.933261	435.431661	635.208435	578.254011	438.966992	511.968121	559.077516	423.234134	499.955847	455.579983	399.084889	387.355889	593.585186	421.975333	301.232514	575.947515	398.494845	218.372375	569.311950	448.536706	305.904314	545.829303	392.507773	97.770329	555.662577	407.470278	122.399247	469.964705	321.391218	65.441612	507.920522	612.066430	78.965046	510.633363	535.383947	47.873124	577.134854	538.687157	47.751758	464.034130	444.996037	815.107858	189.152632	464.402580	729.839564	192.905788	500.495553	730.636215	201.456341	437.505156	645.447069	196.133740	431.513690	518.842803	216.703545	436.833947	496.337127	315.241416	381.882976	107.050408	221.694203	412.014985	126.431258	301.924535	325.137676	74.283517	264.457874	541.943711	47.196861	295.876345	528.717610	43.042095	181.176395	409.592425	394.162468	190.466476	423.098288	310.661664	207.705469	394.237189	227.140466	207.535103	444.393317	313.040278	240.036197	610.523649	81.620729	243.144037	
1253	6.2650	420.318962	1530.090352	594.191013	408.462019	1544.699886	197.270838	361.332217	1583.815113	394.402070	492.386143	1487.927648	393.005426	379.940018	1237.059315	681.027253	454.968653	960.682028	793.230716	387.542347	1244.470965	96.374466	445.780560	973.768112	-8.331744	327.747000	1028.549155	403.742283	474.946444	1094.037987	238.018879	480.828974	1100.373092	554.827721	524.048442	1036.452673	268.732891	536.826029	1033.954068	520.292440	349.755216	1068.170470	451.465483	348.337347	1075.821687	352.153112	423.869993	955.728173	576.632879	428.233002	943.759163	211.389620	436.762771	804.248056	592.532621	458.414359	718.494465	588.248774	495.404244	719.153616	579.957573	435.434627	635.209992	578.255634	438.950382	511.960582	559.088460	423.215481	499.960831	455.570181	399.086258	387.362609	593.592101	421.970587	301.237427	575.958281	398.488713	218.363825	569.314976	448.520492	305.893095	545.813309	392.519742	97.787610	555.655087	407.465465	122.399309	469.958990	321.421560	65.436088	507.928844	612.065289	78.984904	510.622503	535.385654	47.899699	577.126113	538.687155	47.751765	464.034123	444.966564	815.119412	189.147168	464.360323	729.839362	192.937211	500.477847	730.435818	201.402574	437.484520	645.436573	196.132568	431.055711	518.664834	216.567409	436.800630	496.341894	315.231028	381.902276	107.035726	221.700120	412.024387	126.414694	301.922395	325.129843	74.284774	264.456820	541.943712	47.195700	295.881303	528.740660	43.050511	181.178206	409.580694	394.158288	190.466390	423.074004	310.668145	207.687782	394.211585	227.156815	207.517196	444.367879	313.057392	240.039660	610.524158	81.618211	243.133783	
1254	6.2700	420.327610	1530.082175	594.194559	408.438538	1544.699697	197.259110	361.302721	1583.834957	394.422570	492.340100	1487.912771	392.988519	379.920170	1237.066744	681.009807	454.930745	960.647793	793.224977	387.493879	1244.486392	96.402852	445.737465	973.765485	-8.353265	327.721327	1028.559176	403.734853	474.918195	1094.035808	238.022504	480.807456	1100.357540	554.819629	524.014353	1036.451891	268.734884	536.804037	1033.952131	520.287024	349.749360	1068.173087	451.458250	348.310338	1075.816999	352.156027	423.824776	955.719683	576.634098	428.210213	943.765069	211.386182	436.738638	804.242647	592.547170	458.410847	718.487375	588.231439	495.427568	719.151375	579.986408	435.424070	635.221534	578.269888	438.947347	511.968406	559.090286	423.214309	499.960832	455.565051	399.069411	387.351554	593.574107	421.965137	301.234892	575.952991	398.485765	218.357718	569.298396	448.531965	305.911054	545.838098	392.492797	97.797445	555.652323	407.436229	122.408447	469.967788	321.424349	65.427442	507.931729	612.060319	78.961845	510.607720	535.377943	47.888517	577.132054	538.674254	47.752857	464.044781	444.939094	815.121183	189.135667	464.345464	729.843356	192.922395	500.442960	730.451670	201.428554	437.426632	645.452426	196.127864	431.507363	518.850857	216.701989	436.793817	496.336405	315.238070	381.893271	107.032629	221.686380	412.042413	126.402513	301.905198	325.136567	74.263659	264.459438	541.957795	47.206662	295.875181	528.729799	43.047682	181.170527	409.562139	394.146429	190.460339	423.074428	310.665684	207.689586	394.209967	227.137240	207.518600	444.372758	313.040335	240.018144	610.526968	81.628024	243.142236	
